/* XPM */
static char *fireball_2[] = {
"16 16 4 1",
"  c #FFFFFF",
". c #FF4500",
"+ c #FFA500",
"* c #FFFF00",
"      ....      ",
"    ..++++..    ",
"   .+***++**+.  ",
"  .+***++++***. ",
" .+***++++++***.",
" .+**++++++++**.",
" .+**++++++++**.",
" .+***++++++***.",
"  .+***++++***. ",
"   .+**++***+.  ",
"    ..++++..    ",
"      ....      ",
"                ",
"                ",
"                ",
"                "};
